<?xml version="1.0" encoding="UTF-8"?>
<svg xmlns="http://www.w3.org/2000/svg" xmlns:xlink="http://www.w3.org/1999/xlink" width="20px" height="20px" viewBox="0 0 20 20" version="1.1">
<g id="surface1">
<path style=" stroke:none;fill-rule:nonzero;fill:rgb(1.568627%,1.568627%,1.176471%);fill-opacity:1;" d="M 19.757812 10 C 19.757812 15.386719 15.386719 19.757812 10 19.757812 C 4.613281 19.757812 0.242188 15.386719 0.242188 10 C 0.242188 4.613281 4.613281 0.242188 10 0.242188 C 15.386719 0.242188 19.757812 4.613281 19.757812 10 Z M 19.757812 10 "/>
<path style=" stroke:none;fill-rule:nonzero;fill:rgb(87.843137%,89.411765%,90.980392%);fill-opacity:1;" d="M 19.140625 9.921875 C 19.140625 14.96875 15.046875 19.0625 10 19.0625 C 4.953125 19.0625 0.859375 14.96875 0.859375 9.921875 "/>
<path style=" stroke:none;fill-rule:nonzero;fill:rgb(90.196078%,29.803922%,23.529412%);fill-opacity:1;" d="M 0.859375 10.078125 C 0.859375 5.03125 4.953125 0.9375 10 0.9375 C 15.046875 0.9375 19.140625 5.03125 19.140625 10.078125 "/>
<path style=" stroke:none;fill-rule:nonzero;fill:rgb(1.568627%,1.568627%,1.568627%);fill-opacity:1;" d="M 0.546875 7.929688 L 19.453125 7.929688 L 19.453125 12.109375 L 0.546875 12.109375 Z M 0.546875 7.929688 "/>
<path style=" stroke:none;fill-rule:nonzero;fill:rgb(0%,0%,0%);fill-opacity:1;" d="M 14.835938 10 C 14.835938 12.671875 12.671875 14.835938 10 14.835938 C 7.328125 14.835938 5.164062 12.671875 5.164062 10 C 5.164062 7.328125 7.328125 5.164062 10 5.164062 C 12.671875 5.164062 14.835938 7.328125 14.835938 10 Z M 14.835938 10 "/>
<path style=" stroke:none;fill-rule:nonzero;fill:rgb(87.843137%,89.411765%,90.980392%);fill-opacity:1;" d="M 12.929688 10 C 12.929688 11.617188 11.617188 12.929688 10 12.929688 C 8.382812 12.929688 7.070312 11.617188 7.070312 10 C 7.070312 8.382812 8.382812 7.070312 10 7.070312 C 11.617188 7.070312 12.929688 8.382812 12.929688 10 Z M 12.929688 10 "/>
<path style=" stroke:none;fill-rule:nonzero;fill:rgb(0%,0%,0%);fill-opacity:1;" d="M 11.992188 10 C 11.992188 11.101562 11.101562 11.992188 10 11.992188 C 8.898438 11.992188 8.007812 11.101562 8.007812 10 C 8.007812 8.898438 8.898438 8.007812 10 8.007812 C 11.101562 8.007812 11.992188 8.898438 11.992188 10 Z M 11.992188 10 "/>
<path style=" stroke:none;fill-rule:nonzero;fill:rgb(87.843137%,89.411765%,90.980392%);fill-opacity:1;" d="M 11.40625 10 C 11.40625 10.777344 10.777344 11.40625 10 11.40625 C 9.222656 11.40625 8.59375 10.777344 8.59375 10 C 8.59375 9.222656 9.222656 8.59375 10 8.59375 C 10.777344 8.59375 11.40625 9.222656 11.40625 10 Z M 11.40625 10 "/>
</g>
</svg>
